<svg xmlns="http://www.w3.org/2000/svg" fill="none" stroke="currentColor" width="24" height="24" style=""><rect id="backgroundrect" width="100%" height="100%" x="0" y="0" fill="none" stroke="none"/>
  
<g class="currentLayer" style=""><title>Layer 1</title><path stroke-linecap="round" stroke-linejoin="round" stroke-width="2" d="M10.989401349380522,13.102221782150293 a1.3777777601974184,1.3777777601974184 0 0 0 0,-2.204444416315869 L3.6417125542476914,5.386666325044754 A1.3777777601974184,1.3777777601974184 0 0 0 1.4372681379318237,6.488888533202687 v11.022222081579343 a1.3777777601974184,1.3777777601974184 0 0 0 2.204444416315869,1.1022222081579345 l7.3476887951328305,-5.511111040789672 zM22.011623430959872,13.102221782150293 a1.3777777601974184,1.3777777601974184 0 0 0 0,-2.204444416315869 l-7.3476887951328305,-5.511111040789672 A1.3777777601974184,1.3777777601974184 0 0 0 12.459490219511167,6.488888533202687 v11.022222081579343 a1.3777777601974184,1.3777777601974184 0 0 0 2.204444416315869,1.1022222081579345 l7.3476887951328305,-5.511111040789672 z" id="svg_1" class="selected" stroke="#e84141" stroke-opacity="1"/></g></svg>